<svg xmlns="http://www.w3.org/2000/svg" width="700" height="766" viewBox="0 0 700 766"><rect width="100%" height="100%" fill="#DDDDDD"/><path fill="#999999" d="M142.31 349.38h46.45v4.98q0 2.23-.47 3.6-.46 1.37-.93 2.3l-25.48 52.45q-.79 1.63-2.23 2.77-1.44 1.14-3.86 1.14h-8.32l25.99-51.38q.88-1.58 1.74-2.91.86-1.32 1.93-2.53h-32.17q-1.07 0-1.86-.79t-.79-1.86v-7.77ZM243.54 383q0 8.79-1.89 15.28-1.88 6.48-5.21 10.71-3.32 4.24-7.85 6.3-4.54 2.07-9.79 2.07-5.26 0-9.74-2.07-4.49-2.06-7.79-6.3-3.3-4.23-5.16-10.71-1.86-6.49-1.86-15.28 0-8.83 1.86-15.3 1.86-6.46 5.16-10.69 3.3-4.23 7.79-6.3 4.48-2.07 9.74-2.07 5.25 0 9.79 2.07 4.53 2.07 7.85 6.3 3.33 4.23 5.21 10.69 1.89 6.47 1.89 15.3Zm-11.86 0q0-7.3-1.07-12.09t-2.86-7.63q-1.79-2.83-4.12-3.97-2.32-1.14-4.83-1.14-2.47 0-4.77 1.14-2.3 1.14-4.07 3.97-1.76 2.84-2.81 7.63T206.1 383q0 7.3 1.05 12.09t2.81 7.63q1.77 2.83 4.07 3.97 2.3 1.14 4.77 1.14 2.51 0 4.83-1.14 2.33-1.14 4.12-3.97 1.79-2.84 2.86-7.63 1.07-4.79 1.07-12.09Zm65.8 0q0 8.79-1.89 15.28-1.88 6.48-5.21 10.71-3.32 4.24-7.85 6.3-4.54 2.07-9.79 2.07-5.26 0-9.74-2.07-4.49-2.06-7.79-6.3-3.3-4.23-5.16-10.71-1.86-6.49-1.86-15.28 0-8.83 1.86-15.3 1.86-6.46 5.16-10.69 3.3-4.23 7.79-6.3 4.48-2.07 9.74-2.07 5.25 0 9.79 2.07 4.53 2.07 7.85 6.3 3.33 4.23 5.21 10.69 1.89 6.47 1.89 15.3Zm-11.86 0q0-7.3-1.07-12.09t-2.86-7.63q-1.79-2.83-4.12-3.97-2.32-1.14-4.83-1.14-2.47 0-4.77 1.14-2.3 1.14-4.07 3.97-1.76 2.84-2.81 7.63T260.04 383q0 7.3 1.05 12.09t2.81 7.63q1.77 2.83 4.07 3.97 2.3 1.14 4.77 1.14 2.51 0 4.83-1.14 2.33-1.14 4.12-3.97 1.79-2.84 2.86-7.63 1.07-4.79 1.07-12.09Zm85.7 18.23-6.09 6-15.77-15.77-15.9 15.86-6.09-6 15.9-15.95-15.16-15.16 6.05-6.04 15.16 15.16 15.06-15.07 6.14 6.05-15.11 15.11 15.81 15.81Zm31.94-51.85h46.46v4.98q0 2.23-.47 3.6-.46 1.37-.93 2.3l-25.48 52.45q-.79 1.63-2.23 2.77-1.44 1.14-3.86 1.14h-8.32l25.99-51.38q.88-1.58 1.74-2.91.86-1.32 1.93-2.53h-32.18q-1.07 0-1.86-.79t-.79-1.86v-7.77Zm93.84 0-19.95 24.41-2.32 2.89q1.95-.98 4.21-1.51 2.25-.54 4.85-.54 3.82 0 7.42 1.26 3.61 1.25 6.35 3.79 2.74 2.53 4.42 6.3 1.67 3.76 1.67 8.78 0 4.7-1.72 8.82-1.72 4.11-4.84 7.18-3.11 3.07-7.51 4.84-4.39 1.76-9.69 1.76-5.4 0-9.67-1.72-4.28-1.72-7.3-4.81-3.03-3.09-4.63-7.44-1.6-4.35-1.6-9.65 0-4.74 1.92-9.74 1.93-5 5.98-10.39l16.04-21.53q.84-1.12 2.44-1.91 1.61-.79 3.7-.79h10.23Zm-17.34 58.59q2.74 0 5.04-.93t3.95-2.6q1.65-1.68 2.58-3.93.93-2.26.93-4.91 0-2.88-.88-5.18t-2.51-3.91q-1.63-1.6-3.91-2.44-2.27-.84-5.02-.84-2.74 0-4.97.93-2.24.93-3.82 2.58-1.58 1.65-2.46 3.91-.88 2.26-.88 4.86 0 2.79.76 5.09.77 2.3 2.28 3.93 1.51 1.63 3.74 2.53 2.24.91 5.17.91Zm71.28-58.59-19.95 24.41-2.32 2.89q1.95-.98 4.21-1.51 2.25-.54 4.85-.54 3.82 0 7.42 1.26 3.61 1.25 6.35 3.79 2.74 2.53 4.42 6.3 1.67 3.76 1.67 8.78 0 4.7-1.72 8.82-1.72 4.11-4.84 7.18-3.11 3.07-7.51 4.84-4.39 1.76-9.69 1.76-5.4 0-9.67-1.72-4.28-1.72-7.3-4.81-3.03-3.09-4.63-7.44-1.6-4.35-1.6-9.65 0-4.74 1.92-9.74 1.93-5 5.98-10.39l16.04-21.53q.84-1.12 2.44-1.91 1.61-.79 3.7-.79h10.23Zm-17.34 58.59q2.74 0 5.04-.93t3.95-2.6q1.65-1.68 2.58-3.93.93-2.26.93-4.91 0-2.88-.88-5.18t-2.51-3.91q-1.63-1.6-3.91-2.44-2.27-.84-5.02-.84-2.74 0-4.97.93-2.24.93-3.82 2.58-1.58 1.65-2.46 3.91-.88 2.26-.88 4.86 0 2.79.76 5.09.77 2.3 2.28 3.93 1.51 1.63 3.74 2.53 2.24.91 5.17.91Z"/></svg>