<svg xmlns="http://www.w3.org/2000/svg" width="1136" height="507" viewBox="0 0 1136 507"><rect width="100%" height="100%" fill="#DDDDDD"/><path fill="#999999" d="M276.565 289.28h17.29v12.3h-53.2v-12.3h19.48v-56.06q0-3.33.2-6.85l-13.83 11.57q-1.2.93-2.36 1.16-1.16.24-2.19.04-1.04-.2-1.83-.7-.8-.5-1.2-1.1l-5.19-7.11 29.33-24.94h13.5v83.99Zm77.14 0h17.29v12.3h-53.2v-12.3h19.48v-56.06q0-3.33.2-6.85l-13.83 11.57q-1.2.93-2.36 1.16-1.16.24-2.19.04-1.04-.2-1.83-.7-.8-.5-1.2-1.1l-5.19-7.11 29.33-24.94h13.5v83.99Zm41.43-55.53-8.65-1.53q1-6.92 3.86-12.14 2.86-5.22 7.15-8.71 4.29-3.49 9.84-5.25 5.55-1.76 11.94-1.76 6.65 0 12 1.89 5.35 1.9 9.14 5.26 3.79 3.35 5.82 7.88 2.03 4.52 2.03 9.77 0 4.59-1.03 8.08t-2.96 6.09q-1.93 2.59-4.79 4.38-2.86 1.8-6.45 3 8.65 2.72 12.9 8.31 4.26 5.59 4.26 14.03 0 7.18-2.66 12.7t-7.18 9.28q-4.52 3.76-10.48 5.69-5.95 1.92-12.6 1.92-7.25 0-12.63-1.66-5.39-1.66-9.38-4.92-3.99-3.26-6.78-7.98-2.8-4.72-4.79-10.91l7.25-2.99q2.86-1.2 5.35-.63 2.5.57 3.63 2.69 1.19 2.33 2.62 4.59 1.43 2.26 3.43 4.03 1.99 1.76 4.69 2.85 2.69 1.1 6.41 1.1 4.19 0 7.32-1.36 3.12-1.36 5.22-3.56 2.09-2.19 3.12-4.89 1.03-2.69 1.03-5.42 0-3.45-.73-6.28t-3.06-4.82q-2.32-2-6.68-3.13-4.36-1.13-11.67-1.13v-11.7q6.05-.07 10.04-1.13 3.99-1.07 6.35-2.96 2.36-1.9 3.29-4.56.93-2.66.93-5.85 0-6.78-3.79-10.31-3.79-3.52-10.1-3.52-2.93 0-5.39.83-2.46.83-4.42 2.33-1.96 1.49-3.29 3.49-1.33 1.99-2 4.39-1.13 3.06-2.96 4.05-1.83 1-5.15.47Zm124.55-28.33-28.53 34.91-3.32 4.13q2.79-1.4 6.02-2.16 3.22-.77 6.95-.77 5.45 0 10.6 1.8 5.16 1.79 9.08 5.42 3.92 3.62 6.32 9.01 2.39 5.38 2.39 12.56 0 6.72-2.46 12.61-2.46 5.88-6.91 10.27-4.46 4.39-10.74 6.92-6.29 2.52-13.87 2.52-7.71 0-13.83-2.46t-10.44-6.88q-4.32-4.42-6.62-10.64-2.29-6.22-2.29-13.8 0-6.78 2.76-13.93 2.76-7.15 8.54-14.86l22.94-30.79q1.2-1.6 3.5-2.73 2.29-1.13 5.28-1.13h14.63Zm-24.8 83.79q3.92 0 7.21-1.33t5.66-3.72q2.36-2.4 3.69-5.62 1.33-3.23 1.33-7.02 0-4.12-1.27-7.41-1.26-3.29-3.59-5.59-2.33-2.29-5.58-3.49-3.26-1.2-7.19-1.2-3.92 0-7.11 1.33-3.19 1.33-5.45 3.69-2.27 2.36-3.53 5.59-1.26 3.23-1.26 6.95 0 3.99 1.09 7.28 1.1 3.29 3.26 5.62 2.16 2.33 5.36 3.62 3.19 1.3 7.38 1.3Zm140.98-9.64-8.71 8.58-22.55-22.55-22.74 22.68-8.71-8.58 22.74-22.81-21.68-21.68 8.65-8.64 21.68 21.68 21.54-21.55 8.78 8.65-21.61 21.61 22.61 22.61Zm69.89-59.25-3.39 20.01q3.19-.66 6.12-.96 2.92-.3 5.65-.3 7.58 0 13.36 2.26 5.79 2.26 9.71 6.25 3.93 3.99 5.92 9.35 2 5.35 2 11.53 0 7.65-2.7 13.97-2.69 6.32-7.48 10.8-4.79 4.49-11.34 6.95t-14.26 2.46q-4.52 0-8.58-.93-4.05-.93-7.61-2.49-3.56-1.56-6.59-3.59-3.02-2.03-5.42-4.29l5.06-6.98q1.59-2.26 4.19-2.26 1.66 0 3.39 1.06 1.73 1.06 3.96 2.33 2.22 1.26 5.25 2.32 3.03 1.07 7.28 1.07 4.52 0 7.98-1.46 3.46-1.47 5.75-4.09 2.3-2.63 3.46-6.26 1.17-3.62 1.17-7.88 0-7.84-4.56-12.26-4.56-4.43-13.47-4.43-6.85 0-14.03 2.53l-10.24-2.93 7.98-46.68h47.48v6.98q0 3.53-2.19 5.72-2.2 2.2-7.45 2.2h-26.4Zm120.56 33.18q0 12.57-2.69 21.85-2.69 9.27-7.45 15.32-4.75 6.06-11.24 9.01-6.48 2.96-13.99 2.96-7.52 0-13.94-2.96-6.41-2.95-11.13-9.01-4.73-6.05-7.39-15.32-2.66-9.28-2.66-21.85 0-12.63 2.66-21.88 2.66-9.24 7.39-15.29 4.72-6.05 11.13-9.01 6.42-2.96 13.94-2.96 7.51 0 13.99 2.96 6.49 2.96 11.24 9.01 4.76 6.05 7.45 15.29 2.69 9.25 2.69 21.88Zm-16.95 0q0-10.44-1.53-17.29t-4.09-10.91q-2.56-4.05-5.89-5.68-3.32-1.63-6.91-1.63-3.53 0-6.82 1.63-3.29 1.63-5.82 5.68-2.53 4.06-4.02 10.91-1.5 6.85-1.5 17.29t1.5 17.29q1.49 6.85 4.02 10.91 2.53 4.05 5.82 5.68 3.29 1.63 6.82 1.63 3.59 0 6.91-1.63 3.33-1.63 5.89-5.68 2.56-4.06 4.09-10.91 1.53-6.85 1.53-17.29Zm26.46-48.08h66.44v7.12q0 3.19-.67 5.15-.66 1.96-1.33 3.29l-36.44 75.01q-1.13 2.33-3.19 3.96t-5.52 1.63h-11.91l37.18-73.48q1.26-2.26 2.49-4.16 1.23-1.89 2.76-3.62h-46.02q-1.53 0-2.66-1.13-1.13-1.13-1.13-2.66v-11.11Z"/></svg>