<svg xmlns="http://www.w3.org/2000/svg" width="425" height="400" viewBox="0 0 425 400"><rect width="100%" height="100%" fill="#DDDDDD"/><path fill="#999999" d="M91.285 205.075h12.54v-13.48q0-1.91.26-4.22l-12.8 17.7Zm18.67 0h5.19v4.07q0 .57-.38.99-.37.41-1.05.41h-3.76v10.06h-6.13v-10.06h-17.38q-.72 0-1.26-.44t-.68-1.1l-.74-3.56 19.52-26.08h6.67v25.71Zm24.02 8.97h10.58q1.14 0 1.81.65.67.64.67 1.69v4.22h-28.28v-2.34q0-.71.3-1.49.3-.79.96-1.41l12.51-12.54q1.57-1.6 2.81-3.05 1.24-1.46 2.06-2.88.83-1.43 1.27-2.89.44-1.47.44-3.1 0-1.48-.42-2.6-.43-1.13-1.21-1.9-.79-.77-1.89-1.15-1.09-.39-2.46-.39-1.26 0-2.32.36-1.07.35-1.9.99-.83.65-1.4 1.5-.57.86-.85 1.88-.49 1.31-1.25 1.74-.77.43-2.23.2l-3.7-.66q.42-2.96 1.65-5.2 1.23-2.23 3.06-3.73 1.84-1.5 4.22-2.25 2.38-.76 5.12-.76 2.85 0 5.21.84 2.37.84 4.05 2.38 1.68 1.54 2.62 3.71.94 2.16.94 4.81 0 2.29-.67 4.22-.67 1.94-1.79 3.71-1.13 1.77-2.64 3.42-1.51 1.65-3.16 3.36l-9.29 9.49q1.34-.4 2.66-.61 1.33-.22 2.52-.22Zm28.7-28.27-1.45 8.58q1.37-.28 2.62-.41 1.26-.13 2.42-.13 3.25 0 5.73.97 2.48.97 4.16 2.68 1.69 1.71 2.54 4 .86 2.3.86 4.95 0 3.27-1.16 5.98-1.15 2.71-3.21 4.63-2.05 1.93-4.85 2.98-2.81 1.06-6.12 1.06-1.94 0-3.67-.4-1.74-.4-3.27-1.07-1.52-.67-2.82-1.54-1.3-.87-2.32-1.84l2.16-2.99q.69-.97 1.8-.97.71 0 1.45.46.74.45 1.7.99.95.54 2.25 1 1.3.46 3.12.46 1.94 0 3.42-.63t2.47-1.75q.98-1.13 1.48-2.68.5-1.56.5-3.38 0-3.36-1.95-5.26-1.96-1.89-5.78-1.89-2.93 0-6.01 1.08l-4.39-1.25 3.42-20.01h20.35v2.99q0 1.51-.94 2.45-.94.94-3.19.94h-11.32Zm63.87 25.4-3.73 3.67-9.66-9.66-9.75 9.72-3.73-3.68 9.74-9.77-9.29-9.29 3.71-3.71 9.29 9.29 9.23-9.23 3.76 3.7-9.26 9.27 9.69 9.69Zm24.68-6.1h12.54v-13.48q0-1.91.26-4.22l-12.8 17.7Zm18.67 0h5.19v4.07q0 .57-.37.99-.37.41-1.06.41h-3.76v10.06h-6.13v-10.06h-17.38q-.71 0-1.26-.44-.54-.44-.68-1.1l-.74-3.56 19.52-26.08h6.67v25.71Zm38.28-5.08q0 5.39-1.16 9.37-1.15 3.97-3.19 6.57-2.04 2.59-4.82 3.86-2.78 1.27-6 1.27t-5.97-1.27q-2.75-1.27-4.77-3.86-2.02-2.6-3.16-6.57-1.14-3.98-1.14-9.37 0-5.41 1.14-9.37 1.14-3.96 3.16-6.56 2.02-2.59 4.77-3.86 2.75-1.27 5.97-1.27 3.22 0 6 1.27t4.82 3.86q2.04 2.6 3.19 6.56 1.16 3.96 1.16 9.37Zm-7.27 0q0-4.47-.66-7.41-.65-2.93-1.75-4.67-1.1-1.74-2.52-2.44-1.43-.69-2.97-.69-1.51 0-2.92.69-1.41.7-2.49 2.44-1.08 1.74-1.73 4.67-.64 2.94-.64 7.41 0 4.48.64 7.41.65 2.94 1.73 4.68 1.08 1.74 2.49 2.44 1.41.69 2.92.69 1.54 0 2.97-.69 1.42-.7 2.52-2.44t1.75-4.68q.66-2.93.66-7.41Zm40.33 0q0 5.39-1.16 9.37-1.15 3.97-3.19 6.57-2.04 2.59-4.82 3.86-2.78 1.27-6 1.27t-5.97-1.27q-2.75-1.27-4.77-3.86-2.02-2.6-3.16-6.57-1.14-3.98-1.14-9.37 0-5.41 1.14-9.37 1.14-3.96 3.16-6.56 2.02-2.59 4.77-3.86 2.75-1.27 5.97-1.27 3.22 0 6 1.27t4.82 3.86q2.04 2.6 3.19 6.56 1.16 3.96 1.16 9.37Zm-7.27 0q0-4.47-.66-7.41-.65-2.93-1.75-4.67-1.1-1.74-2.52-2.44-1.43-.69-2.97-.69-1.51 0-2.92.69-1.41.7-2.49 2.44-1.08 1.74-1.73 4.67-.64 2.94-.64 7.41 0 4.48.64 7.41.65 2.94 1.73 4.68 1.08 1.74 2.49 2.44 1.41.69 2.92.69 1.54 0 2.97-.69 1.42-.7 2.52-2.44t1.75-4.68q.66-2.93.66-7.41Z"/></svg>