<svg width="206" height="60" viewBox="0 0 206 60" fill="none" xmlns="http://www.w3.org/2000/svg">
<path d="M30 58.5C45.7401 58.5 58.5 45.7401 58.5 30C58.5 14.2599 45.7401 1.5 30 1.5C14.2599 1.5 1.5 14.2599 1.5 30C1.5 45.7401 14.2599 58.5 30 58.5Z" fill="#D8D8D8" stroke="white" stroke-width="3"/>
<circle cx="80" cy="30" r="28.5" fill="#D8D8D8" stroke="white" stroke-width="3"/>
<circle cx="129" cy="30" r="28.5" fill="#D8D8D8" stroke="white" stroke-width="3"/>
<g clip-path="url(#clip0_38_40)">
<circle cx="179" cy="30" r="28.5" fill="#EFF0F4" stroke="white" stroke-width="3"/>
<path d="M166.968 34.208C166.291 34.208 165.688 34.056 165.16 33.752C164.637 33.4427 164.227 33.032 163.928 32.52C163.629 32.0027 163.48 31.4293 163.48 30.8H164.824C164.824 31.1787 164.912 31.5253 165.088 31.84C165.264 32.1493 165.512 32.3973 165.832 32.584C166.152 32.7707 166.531 32.864 166.968 32.864C167.347 32.864 167.699 32.7707 168.024 32.584C168.355 32.3973 168.621 32.1493 168.824 31.84C169.027 31.5253 169.128 31.1787 169.128 30.8C169.128 30.3253 169.005 29.9307 168.76 29.616C168.52 29.296 168.184 29.0587 167.752 28.904C167.325 28.744 166.837 28.664 166.288 28.664V27.584C167.045 27.584 167.651 27.4267 168.104 27.112C168.563 26.7973 168.792 26.3333 168.792 25.72C168.792 25.3947 168.704 25.096 168.528 24.824C168.352 24.552 168.12 24.336 167.832 24.176C167.549 24.0107 167.245 23.928 166.92 23.928C166.589 23.928 166.272 24.0107 165.968 24.176C165.664 24.336 165.416 24.552 165.224 24.824C165.032 25.096 164.936 25.3947 164.936 25.72H163.592C163.592 25.288 163.68 24.8827 163.856 24.504C164.037 24.1253 164.283 23.792 164.592 23.504C164.907 23.216 165.261 22.992 165.656 22.832C166.051 22.6667 166.467 22.584 166.904 22.584C167.475 22.584 168.005 22.7253 168.496 23.008C168.987 23.2907 169.381 23.6693 169.68 24.144C169.984 24.6187 170.136 25.144 170.136 25.72C170.136 26.2373 170.005 26.7147 169.744 27.152C169.483 27.5893 169.128 27.896 168.68 28.072C169.069 28.2053 169.397 28.4133 169.664 28.696C169.931 28.9733 170.131 29.2933 170.264 29.656C170.403 30.0187 170.472 30.4 170.472 30.8C170.472 31.424 170.309 31.9947 169.984 32.512C169.664 33.0293 169.237 33.4427 168.704 33.752C168.176 34.056 167.597 34.208 166.968 34.208ZM175.233 34.208C174.54 34.208 173.91 34.04 173.345 33.704C172.78 33.368 172.332 32.92 172.001 32.36C171.676 31.7947 171.513 31.1733 171.513 30.496H172.857C172.857 30.928 172.964 31.3253 173.177 31.688C173.39 32.0453 173.676 32.3307 174.033 32.544C174.396 32.7573 174.796 32.864 175.233 32.864C175.665 32.864 176.06 32.7573 176.417 32.544C176.774 32.3307 177.06 32.0453 177.273 31.688C177.486 31.3253 177.593 30.928 177.593 30.496C177.593 30.064 177.492 29.6667 177.289 29.304C177.092 28.9413 176.801 28.6533 176.417 28.44C176.033 28.2213 175.566 28.112 175.017 28.112H172.257L173.345 22.8H178.657V24.144H174.433L173.913 26.768L175.073 26.776C175.836 26.792 176.505 26.9627 177.081 27.288C177.662 27.608 178.116 28.0453 178.441 28.6C178.772 29.1493 178.937 29.7813 178.937 30.496C178.937 31.0027 178.841 31.4827 178.649 31.936C178.457 32.384 178.19 32.7787 177.849 33.12C177.508 33.4613 177.113 33.728 176.665 33.92C176.222 34.112 175.745 34.208 175.233 34.208ZM184.198 34.208C183.532 34.208 182.934 34.0587 182.406 33.76C181.878 33.456 181.425 33.0373 181.046 32.504C180.668 31.9707 180.38 31.3547 180.182 30.656C179.985 29.952 179.886 29.2 179.886 28.4C179.886 27.6 179.985 26.848 180.182 26.144C180.38 25.44 180.668 24.824 181.046 24.296C181.425 23.7627 181.878 23.3467 182.406 23.048C182.934 22.744 183.532 22.592 184.198 22.592C184.86 22.592 185.454 22.744 185.982 23.048C186.516 23.3467 186.966 23.7627 187.334 24.296C187.708 24.824 187.993 25.44 188.19 26.144C188.393 26.848 188.494 27.6 188.494 28.4C188.494 29.2 188.393 29.952 188.19 30.656C187.993 31.3547 187.708 31.9707 187.334 32.504C186.966 33.0373 186.516 33.456 185.982 33.76C185.454 34.0587 184.86 34.208 184.198 34.208ZM184.198 32.864C184.865 32.864 185.422 32.6587 185.87 32.248C186.324 31.832 186.662 31.2853 186.886 30.608C187.11 29.9307 187.222 29.1947 187.222 28.4C187.222 27.5627 187.105 26.808 186.87 26.136C186.641 25.4587 186.3 24.9227 185.846 24.528C185.398 24.1333 184.849 23.936 184.198 23.936C183.686 23.936 183.238 24.056 182.854 24.296C182.476 24.536 182.161 24.864 181.91 25.28C181.66 25.696 181.47 26.1733 181.342 26.712C181.22 27.2453 181.158 27.808 181.158 28.4C181.158 29.1947 181.273 29.9333 181.502 30.616C181.732 31.2933 182.07 31.8373 182.518 32.248C182.972 32.6587 183.532 32.864 184.198 32.864ZM192.937 33.2V29.872H189.609V28.528H192.937V25.2H194.281V28.528H197.609V29.872H194.281V33.2H192.937Z" fill="#171717"/>
</g>
<defs>
<clipPath id="clip0_38_40">
<rect width="54" height="54" fill="white" transform="translate(152 3)"/>
</clipPath>
</defs>
</svg>
