<svg width="9" height="14" viewBox="0 0 9 14" fill="none" xmlns="http://www.w3.org/2000/svg">
<path d="M8.09122 0.836428C8.09122 0.739861 8.05251 0.64725 7.98358 0.578967C7.91466 0.510684 7.82118 0.472323 7.72371 0.472323H5.88615C4.96084 0.426658 4.0549 0.745687 3.36627 1.3597C2.67764 1.97372 2.26231 2.83281 2.21101 3.74927V5.71543H0.373449C0.275978 5.71543 0.1825 5.75379 0.113578 5.82207C0.0446558 5.89036 0.00593567 5.98297 0.00593567 6.07954V7.97288C0.00593567 8.06945 0.0446558 8.16206 0.113578 8.23034C0.1825 8.29862 0.275978 8.33698 0.373449 8.33698H2.21101V13.216C2.21101 13.3126 2.24973 13.4052 2.31866 13.4734C2.38758 13.5417 2.48106 13.5801 2.57853 13.5801H4.78361C4.88108 13.5801 4.97456 13.5417 5.04348 13.4734C5.1124 13.4052 5.15112 13.3126 5.15112 13.216V8.33698H7.07689C7.15862 8.33815 7.2384 8.31229 7.30363 8.26349C7.36886 8.21469 7.41581 8.14574 7.43705 8.06755L7.96627 6.1742C7.98089 6.1204 7.98286 6.064 7.97202 6.00933C7.96117 5.95466 7.93781 5.90318 7.90373 5.85887C7.86965 5.81455 7.82576 5.77857 7.77543 5.7537C7.72511 5.72884 7.66969 5.71574 7.61346 5.71543H5.15112V3.74927C5.1694 3.56902 5.25484 3.40199 5.39076 3.2808C5.52667 3.15962 5.7033 3.09297 5.88615 3.09388H7.72371C7.82118 3.09388 7.91466 3.05552 7.98358 2.98723C8.05251 2.91895 8.09122 2.82634 8.09122 2.72977V0.836428Z" fill="black"/>
</svg>
