<svg width="10" height="6" viewBox="0 0 10 6" fill="none" xmlns="http://www.w3.org/2000/svg">
<path d="M0.199619 0.531586C0.835823 0.424609 1.4905 0.394256 2.12818 0.508636C3.19517 0.689645 4.19381 1.22971 4.94676 2.00594C5.68642 2.77662 6.19811 3.78013 6.33038 4.84509C5.50206 4.69406 4.69443 4.4331 3.92706 4.08774C3.15453 3.74386 2.43816 3.2793 1.80158 2.72221C2.24087 3.35852 2.84049 3.8686 3.49443 4.27282C4.25957 4.73737 5.11745 5.04016 5.99861 5.18712C6.11831 5.2097 6.23912 5.22636 6.35846 5.2519C5.62324 5.57838 4.79048 5.65648 3.99911 5.53692C2.95392 5.36924 1.96525 4.82917 1.27622 4.02111C0.666982 3.33186 0.288658 2.44681 0.193339 1.53251C0.173019 1.19899 0.175605 0.864362 0.199619 0.531586Z" fill="#2A9D8F"/>
<path d="M6.17875 0.815497C6.70559 0.619311 7.25497 0.471246 7.81839 0.443113C8.2381 0.433859 8.66223 0.436081 9.07455 0.52566C9.19573 0.533804 9.1695 0.678167 9.18797 0.762564C9.24006 1.42071 9.12295 2.087 8.89056 2.70258C8.74869 3.03425 8.60681 3.3711 8.38662 3.65982C8.02123 4.15991 7.56827 4.60226 7.04217 4.93133C6.93835 4.9987 6.82493 5.04978 6.70633 5.08458C6.67456 4.69369 6.59697 4.30613 6.4865 3.93041C6.42111 3.69684 6.31064 3.47992 6.23269 3.25116C6.77099 2.89951 7.29709 2.51528 7.72862 2.03444C7.87714 1.87157 7.99758 1.68575 8.10879 1.49623C7.71606 1.90081 7.25202 2.22582 6.77911 2.52935C6.5434 2.67075 6.31397 2.82363 6.06569 2.94208C5.85695 2.57599 5.60609 2.23581 5.33232 1.91599C5.21964 1.7831 5.08331 1.67205 4.97949 1.53176C5.05671 1.43626 5.16311 1.37185 5.26582 1.30744C5.55917 1.12495 5.85584 0.942093 6.17875 0.815497Z" fill="#2A9D8F"/>
</svg>
