<svg width="29" height="6" viewBox="0 0 29 6" fill="none" xmlns="http://www.w3.org/2000/svg">
<path d="M11.4584 3.89407V1.91877H11.8788L12.6492 3.19002V1.91877H13.0386V3.89407H12.6182L11.8478 2.62283V3.89407H11.4584ZM14.1749 3.93076C14.0169 3.93076 13.8777 3.89219 13.7573 3.81506C13.6378 3.73793 13.5443 3.63446 13.4765 3.50466C13.4097 3.37391 13.3764 3.22906 13.3764 3.07009V1.91877H13.7658V3.07009C13.7658 3.15569 13.7818 3.23423 13.8137 3.30572C13.8457 3.3772 13.8923 3.43458 13.9534 3.47785C14.0146 3.52018 14.0884 3.54134 14.1749 3.54134C14.2624 3.54134 14.3363 3.52018 14.3965 3.47785C14.4576 3.43552 14.5037 3.37861 14.5347 3.30713C14.5658 3.23564 14.5813 3.15663 14.5813 3.07009V1.91877H14.9707V3.07009C14.9707 3.18955 14.9514 3.30148 14.9129 3.40589C14.8752 3.50936 14.8211 3.6006 14.7506 3.67961C14.6801 3.75862 14.5959 3.82023 14.498 3.86444C14.4012 3.90865 14.2935 3.93076 14.1749 3.93076ZM16.8037 1.91877V2.30819H16.2224V3.89407H15.833V2.30819H15.2517V1.91877H16.8037ZM17.0856 3.89407V1.91877H17.87C17.9773 1.91877 18.0742 1.94605 18.1607 2.00061C18.2482 2.05422 18.3173 2.12665 18.3681 2.21789C18.4198 2.30819 18.4457 2.40836 18.4457 2.51842C18.4457 2.60495 18.4306 2.68538 18.4005 2.75969C18.3704 2.83305 18.3281 2.89749 18.2736 2.95298C18.219 3.00848 18.1555 3.05175 18.0831 3.08279L18.5529 3.89407H18.1043L17.6542 3.11806H17.475V3.89407H17.0856ZM17.475 2.72865H17.8235C17.8658 2.72865 17.9044 2.7183 17.9392 2.6976C17.9749 2.67597 18.0031 2.64728 18.0238 2.61154C18.0455 2.57485 18.0563 2.53441 18.0563 2.4902C18.0563 2.44693 18.0455 2.40742 18.0238 2.37168C18.0031 2.335 17.9749 2.30584 17.9392 2.2842C17.9044 2.26257 17.8658 2.25175 17.8235 2.25175H17.475V2.72865ZM18.8392 3.89407V1.91877H19.2286V3.89407H18.8392ZM20.2926 3.89407L19.5758 1.91877H19.9892L20.5437 3.44399L21.0982 1.91877H21.5102L20.7934 3.89407H20.2926ZM21.8071 3.89407V1.91877H22.1965V3.89407H21.8071ZM24.0733 1.91877V2.30819H23.492V3.89407H23.1026V2.30819H22.5213V1.91877H24.0733ZM24.7399 1.91877H25.1829L25.8997 3.89407H25.4863L25.3678 3.56674H24.5551L24.4365 3.89407H24.0231L24.7399 1.91877ZM24.6976 3.17732H25.2253L24.96 2.45351L24.6976 3.17732ZM26.1326 3.89407V1.91877H26.522V3.50466H27.3178V3.89407H26.1326Z" fill="#04091E"/>
<path d="M0.199619 0.531586C0.835823 0.424609 1.4905 0.394256 2.12818 0.508636C3.19517 0.689645 4.19381 1.22971 4.94676 2.00594C5.68642 2.77662 6.19811 3.78013 6.33038 4.84509C5.50206 4.69406 4.69443 4.4331 3.92706 4.08774C3.15453 3.74386 2.43816 3.2793 1.80158 2.72221C2.24087 3.35852 2.84049 3.8686 3.49443 4.27282C4.25957 4.73737 5.11745 5.04016 5.99861 5.18712C6.11831 5.2097 6.23912 5.22636 6.35846 5.2519C5.62324 5.57838 4.79048 5.65648 3.99911 5.53692C2.95392 5.36924 1.96525 4.82917 1.27622 4.02111C0.666982 3.33186 0.288658 2.44681 0.193339 1.53251C0.173019 1.19899 0.175605 0.864362 0.199619 0.531586Z" fill="#2A9D8F"/>
<path d="M6.17875 0.815497C6.70559 0.619311 7.25497 0.471246 7.81839 0.443113C8.2381 0.433859 8.66223 0.436081 9.07455 0.52566C9.19573 0.533804 9.1695 0.678167 9.18797 0.762564C9.24006 1.42071 9.12295 2.087 8.89056 2.70258C8.74869 3.03425 8.60681 3.3711 8.38662 3.65982C8.02123 4.15991 7.56827 4.60226 7.04217 4.93133C6.93835 4.9987 6.82493 5.04978 6.70633 5.08458C6.67456 4.69369 6.59697 4.30613 6.4865 3.93041C6.42111 3.69684 6.31064 3.47992 6.23269 3.25116C6.77099 2.89951 7.29709 2.51528 7.72862 2.03444C7.87714 1.87157 7.99758 1.68575 8.10879 1.49623C7.71606 1.90081 7.25202 2.22582 6.77911 2.52935C6.5434 2.67075 6.31397 2.82363 6.06569 2.94208C5.85695 2.57599 5.60609 2.23581 5.33232 1.91599C5.21964 1.7831 5.08331 1.67205 4.97949 1.53176C5.05671 1.43626 5.16311 1.37185 5.26582 1.30744C5.55917 1.12495 5.85584 0.942093 6.17875 0.815497Z" fill="#2A9D8F"/>
</svg>
