<svg width="14" height="13" viewBox="0 0 14 13" fill="none" xmlns="http://www.w3.org/2000/svg">
<path d="M3.89683 12.1171C4.98371 12.1531 6.06685 11.9729 7.08224 11.5872C8.09764 11.2014 9.02468 10.6179 9.80857 9.87115C10.5925 9.1244 11.2173 8.22954 11.6462 7.23946C12.0751 6.24938 12.2993 5.18417 12.3055 4.10679C12.8036 3.49612 13.1735 2.79297 13.3934 2.03867C13.4098 1.97907 13.4085 1.91605 13.3896 1.85718C13.3707 1.79831 13.335 1.74612 13.2868 1.70687C13.2387 1.66763 13.1801 1.64301 13.1181 1.63599C13.0562 1.62897 12.9935 1.63983 12.9377 1.66728C12.6771 1.79156 12.3837 1.8317 12.0989 1.78205C11.8141 1.73241 11.5521 1.59548 11.35 1.39056C11.092 1.11062 10.7798 0.884845 10.4321 0.726603C10.0844 0.568361 9.70817 0.480876 9.3257 0.469331C8.94323 0.457787 8.56231 0.522419 8.20551 0.659396C7.84872 0.796374 7.5233 1.00291 7.24855 1.26677C6.87236 1.62771 6.59682 2.07893 6.4487 2.57658C6.30059 3.07423 6.28494 3.60137 6.40327 4.10679C3.94093 4.25243 2.25037 3.09457 0.897923 1.50708C0.857293 1.46149 0.804144 1.42862 0.744966 1.41246C0.685788 1.39631 0.623143 1.39757 0.56468 1.41611C0.506218 1.43464 0.454468 1.46964 0.41575 1.51683C0.377032 1.56402 0.353023 1.62136 0.346653 1.68185C0.089004 3.09779 0.274863 4.55795 0.879267 5.86619C1.48367 7.17443 2.47767 8.26812 3.72777 9.00035C2.88958 9.95272 1.71249 10.5475 0.442207 10.6607C0.374152 10.6718 0.311329 10.7038 0.26253 10.7521C0.213732 10.8004 0.181399 10.8627 0.170059 10.9301C0.158718 10.9975 0.168936 11.0667 0.199283 11.1281C0.22963 11.1895 0.278587 11.2399 0.339303 11.2724C1.44443 11.8195 2.66142 12.1085 3.89683 12.1171Z" fill="white"/>
</svg>
