<svg width="14" height="14" viewBox="0 0 14 14" fill="none" xmlns="http://www.w3.org/2000/svg">
<path d="M9.4546 4.67727C8.89125 4.67536 8.33303 4.78351 7.81191 4.99555C7.29079 5.2076 6.81698 5.51936 6.4176 5.91301C6.01822 6.30665 5.70111 6.77446 5.48441 7.28965C5.2677 7.80484 5.15566 8.35731 5.1547 8.91545V13.1973C5.1547 13.3711 5.2244 13.5378 5.34846 13.6608C5.47252 13.7837 5.64078 13.8527 5.81622 13.8527H7.35978C7.53523 13.8527 7.70349 13.7837 7.82755 13.6608C7.95161 13.5378 8.0213 13.3711 8.0213 13.1973V8.91545C8.02116 8.71694 8.06324 8.52063 8.14481 8.33931C8.22638 8.158 8.3456 7.99575 8.49471 7.86314C8.64381 7.73054 8.81945 7.63055 9.01017 7.56971C9.2009 7.50886 9.40242 7.48852 9.60161 7.51001C9.95884 7.55458 10.2871 7.7275 10.5242 7.99595C10.7613 8.2644 10.8907 8.60972 10.8879 8.96642V13.1973C10.8879 13.3711 10.9576 13.5378 11.0817 13.6608C11.2057 13.7837 11.374 13.8527 11.5494 13.8527H13.093C13.2684 13.8527 13.4367 13.7837 13.5608 13.6608C13.6848 13.5378 13.7545 13.3711 13.7545 13.1973V8.91545C13.7535 8.35731 13.6415 7.80484 13.4248 7.28965C13.2081 6.77446 12.891 6.30665 12.4916 5.91301C12.0922 5.51936 11.6184 5.2076 11.0973 4.99555C10.5762 4.78351 10.018 4.67536 9.4546 4.67727Z" fill="white"/>
<path d="M3.17027 5.33203H1.1857C0.820348 5.33203 0.524174 5.62546 0.524174 5.98742V13.1967C0.524174 13.5587 0.820348 13.8521 1.1857 13.8521H3.17027C3.53562 13.8521 3.83179 13.5587 3.83179 13.1967V5.98742C3.83179 5.62546 3.53562 5.33203 3.17027 5.33203Z" fill="white"/>
<path d="M2.17799 4.02157C3.09136 4.02157 3.8318 3.288 3.8318 2.3831C3.8318 1.4782 3.09136 0.744629 2.17799 0.744629C1.26461 0.744629 0.524178 1.4782 0.524178 2.3831C0.524178 3.288 1.26461 4.02157 2.17799 4.02157Z" fill="white"/>
</svg>
