<svg xmlns="http://www.w3.org/2000/svg" width="200" height="38" viewBox="0 0 200 38"><rect width="100%" height="100%" fill="#DDDDDD"/><path fill="#999999" d="M68.125 23.68h3.52q.38 0 .61.22.22.21.22.56v1.41h-9.42v-.78q0-.24.09-.5.1-.26.32-.47l4.17-4.18q.53-.53.94-1.01.41-.49.69-.96.27-.48.42-.97.15-.49.15-1.03 0-.49-.14-.87-.15-.37-.41-.63t-.63-.38q-.36-.13-.82-.13-.42 0-.77.12-.36.11-.63.33-.28.21-.47.5-.19.28-.28.62-.16.44-.42.58-.26.15-.74.07l-1.24-.22q.14-.99.55-1.73.41-.75 1.02-1.25.62-.5 1.41-.75.79-.25 1.71-.25.95 0 1.73.28.79.28 1.35.79.56.52.88 1.24.31.72.31 1.61 0 .76-.22 1.4-.23.65-.6 1.24-.38.58-.88 1.14-.5.55-1.05 1.12l-3.1 3.16q.45-.13.89-.2.44-.08.84-.08ZM83.895 19q0 1.8-.39 3.12-.38 1.33-1.06 2.19-.68.87-1.61 1.29-.92.42-2 .42-1.07 0-1.99-.42-.91-.42-1.59-1.29-.67-.86-1.05-2.19-.38-1.32-.38-3.12t.38-3.12q.38-1.32 1.05-2.19.68-.86 1.59-1.29.92-.42 1.99-.42 1.08 0 2 .42.93.43 1.61 1.29.68.87 1.06 2.19.39 1.32.39 3.12Zm-2.42 0q0-1.49-.22-2.47-.22-.98-.59-1.56-.36-.58-.84-.81-.47-.23-.99-.23-.5 0-.97.23t-.83.81q-.36.58-.58 1.56-.21.98-.21 2.47 0 1.49.21 2.47.22.98.58 1.56.36.58.83.81.47.23.97.23.52 0 .99-.23.48-.23.84-.81.37-.58.59-1.56.22-.98.22-2.47Zm13.44 0q0 1.8-.39 3.12-.38 1.33-1.06 2.19-.68.87-1.61 1.29-.92.42-2 .42-1.07 0-1.99-.42-.91-.42-1.59-1.29-.67-.86-1.05-2.19-.38-1.32-.38-3.12t.38-3.12q.38-1.32 1.05-2.19.68-.86 1.59-1.29.92-.42 1.99-.42 1.08 0 2 .42.93.43 1.61 1.29.68.87 1.06 2.19.39 1.32.39 3.12Zm-2.42 0q0-1.49-.22-2.47-.22-.98-.59-1.56-.36-.58-.84-.81-.47-.23-.99-.23-.5 0-.97.23t-.83.81q-.36.58-.58 1.56-.21.98-.21 2.47 0 1.49.21 2.47.22.98.58 1.56.36.58.83.81.47.23.97.23.52 0 .99-.23.48-.23.84-.81.37-.58.59-1.56.22-.98.22-2.47Zm17.5 3.73-1.24 1.22-3.22-3.22-3.25 3.24-1.24-1.23 3.24-3.25-3.09-3.1 1.23-1.24 3.1 3.1 3.08-3.08 1.25 1.24-3.09 3.09 3.23 3.23Zm7.91-6.55-1.24-.22q.15-.99.55-1.73.41-.75 1.03-1.25.61-.5 1.4-.75.79-.25 1.71-.25.95 0 1.71.27.77.27 1.31.75t.83 1.13q.29.64.29 1.39 0 .66-.15 1.16-.15.5-.42.87-.28.37-.69.63-.4.25-.92.42 1.24.39 1.85 1.19.6.8.6 2 0 1.03-.38 1.82t-1.02 1.32q-.65.54-1.5.82-.85.27-1.8.27-1.03 0-1.8-.24-.77-.23-1.34-.7-.57-.46-.97-1.14-.4-.67-.69-1.56l1.04-.42q.41-.17.76-.09.36.08.52.38.17.33.38.66.2.32.49.57.28.25.67.41.38.16.91.16.6 0 1.05-.2.44-.19.74-.51.3-.31.45-.7.15-.38.15-.77 0-.49-.11-.9-.1-.4-.43-.69-.34-.28-.96-.44-.62-.16-1.67-.16V18q.87-.01 1.44-.16t.91-.42q.33-.27.47-.65.13-.38.13-.84 0-.97-.54-1.47t-1.45-.5q-.41 0-.77.12-.35.11-.63.33-.28.21-.47.5-.19.28-.28.62-.16.44-.43.58-.26.15-.73.07Zm14.27 8.01q.58 0 1.01-.17.44-.16.74-.46.3-.29.45-.7.15-.41.15-.89 0-1.13-.62-1.7-.63-.58-1.73-.58-1.11 0-1.73.58-.63.57-.63 1.7 0 .48.15.89.15.41.45.7.3.3.74.46.44.17 1.02.17Zm0-10.44q-.53 0-.91.16t-.63.43q-.25.27-.37.62-.12.36-.12.75 0 .4.1.79.1.38.34.68.24.3.63.48t.96.18q.57 0 .96-.18t.62-.48q.24-.3.34-.68.1-.39.1-.79 0-.39-.12-.75-.13-.35-.37-.62-.25-.27-.63-.43-.38-.16-.9-.16Zm2.31 4.96q1.26.41 1.86 1.25.6.84.6 2.05 0 .92-.35 1.66-.35.74-.97 1.26-.63.52-1.51.81-.88.28-1.94.28-1.07 0-1.95-.28-.87-.29-1.5-.81t-.98-1.26q-.34-.74-.34-1.66 0-1.21.6-2.05.59-.84 1.85-1.25-1-.42-1.5-1.19t-.5-1.85q0-.78.32-1.46.32-.67.89-1.17.57-.5 1.36-.78.8-.28 1.75-.28t1.74.28q.79.28 1.36.78.57.5.89 1.17.32.68.32 1.46 0 1.08-.5 1.85t-1.5 1.19Z"/></svg>