<svg xmlns="http://www.w3.org/2000/svg" width="519" height="397" viewBox="0 0 519 397"><rect width="100%" height="100%" fill="#DDDDDD"/><path fill="#999999" d="m118.105 181.285-1.76 10.39q1.66-.35 3.17-.5 1.52-.16 2.94-.16 3.93 0 6.93 1.17 3 1.18 5.04 3.25 2.03 2.07 3.07 4.84 1.03 2.78 1.03 5.99 0 3.97-1.39 7.24-1.4 3.28-3.88 5.61-2.49 2.33-5.89 3.61-3.4 1.27-7.4 1.27-2.34 0-4.45-.48-2.1-.48-3.95-1.29-1.84-.82-3.41-1.87-1.57-1.05-2.82-2.22l2.63-3.63q.82-1.17 2.17-1.17.86 0 1.76.55.9.56 2.05 1.21 1.16.66 2.73 1.21 1.57.55 3.78.55 2.34 0 4.14-.76 1.79-.76 2.98-2.12t1.79-3.24q.61-1.88.61-4.09 0-4.07-2.37-6.37-2.36-2.29-6.98-2.29-3.56 0-7.28 1.31l-5.31-1.52 4.14-24.22h24.63v3.63q0 1.82-1.14 2.96t-3.86 1.14h-13.7Zm50.99 35.78h8.97v6.38h-27.6v-6.38h10.11v-29.09q0-1.72.1-3.55l-7.17 6q-.62.49-1.23.61-.6.12-1.14.01-.53-.1-.95-.36-.41-.26-.62-.57l-2.69-3.69 15.22-12.94h7v43.58Zm24.67-28.53q0 4.17 2.15 6.36 2.16 2.19 6.13 2.19 2.07 0 3.69-.65 1.62-.66 2.73-1.8 1.1-1.14 1.67-2.69.57-1.55.57-3.35 0-2.03-.62-3.63-.62-1.61-1.76-2.71-1.14-1.11-2.71-1.69-1.57-.59-3.43-.59-1.94 0-3.49.64-1.55.64-2.65 1.77-1.11 1.14-1.7 2.71-.58 1.57-.58 3.44Zm-4.18 34.91 15.49-19.35q.59-.73 1.11-1.42.52-.69 1-1.38-1.73 1.1-3.8 1.67-2.07.57-4.34.57-2.59 0-5.07-.89-2.49-.9-4.42-2.71-1.93-1.81-3.12-4.49-1.19-2.67-1.19-6.26 0-3.35 1.24-6.28t3.48-5.14q2.25-2.21 5.39-3.48 3.13-1.28 6.93-1.28 3.83 0 6.88 1.21 3.06 1.21 5.21 3.38 2.16 2.17 3.31 5.21 1.16 3.03 1.16 6.66 0 2.31-.4 4.38-.39 2.07-1.12 3.98-.72 1.92-1.76 3.75-1.03 1.83-2.31 3.62l-11.42 16.28q-.59.83-1.76 1.4t-2.65.57h-7.84Zm85.87-11.42-4.52 4.45-11.69-11.69-11.8 11.76-4.52-4.45 11.8-11.83-11.25-11.25 4.49-4.49 11.24 11.25 11.18-11.18 4.56 4.49-11.22 11.21 11.73 11.73Zm28.71-23.77-4.49-.79q.52-3.59 2-6.3 1.49-2.71 3.71-4.52 2.23-1.81 5.11-2.72 2.88-.92 6.19-.92 3.45 0 6.23.98 2.78.99 4.74 2.73 1.97 1.74 3.02 4.09 1.05 2.34 1.05 5.07 0 2.38-.53 4.19-.54 1.81-1.54 3.16-1 1.34-2.48 2.27-1.48.94-3.35 1.56 4.49 1.41 6.7 4.31 2.2 2.9 2.2 7.28 0 3.73-1.38 6.59t-3.72 4.81q-2.35 1.95-5.44 2.95-3.08 1-6.53 1-3.76 0-6.56-.86-2.79-.86-4.86-2.55-2.07-1.69-3.52-4.14-1.45-2.45-2.49-5.66l3.76-1.55q1.49-.63 2.78-.33 1.3.29 1.88 1.4.62 1.2 1.36 2.38.75 1.17 1.78 2.08 1.04.92 2.43 1.49 1.4.57 3.33.57 2.18 0 3.8-.71 1.62-.71 2.71-1.85 1.08-1.14 1.62-2.53.53-1.4.53-2.81 0-1.8-.38-3.26-.38-1.47-1.58-2.51-1.21-1.03-3.47-1.62-2.26-.58-6.06-.58v-6.08q3.14-.03 5.21-.58 2.07-.55 3.3-1.54 1.22-.98 1.71-2.36.48-1.38.48-3.04 0-3.52-1.97-5.34-1.96-1.83-5.24-1.83-1.52 0-2.8.43-1.27.43-2.29 1.21-1.02.77-1.71 1.81-.69 1.03-1.03 2.27-.59 1.59-1.54 2.11-.95.52-2.67.24Zm43.19.28q0 4.17 2.16 6.36 2.15 2.19 6.12 2.19 2.07 0 3.69-.65 1.63-.66 2.73-1.8 1.1-1.14 1.67-2.69.57-1.55.57-3.35 0-2.03-.62-3.63-.62-1.61-1.76-2.71-1.14-1.11-2.71-1.69-1.57-.59-3.43-.59-1.93 0-3.48.64-1.56.64-2.66 1.77-1.1 1.14-1.69 2.71-.59 1.57-.59 3.44Zm-4.17 34.91 15.49-19.35q.58-.73 1.1-1.42.52-.69 1-1.38-1.72 1.1-3.79 1.67-2.07.57-4.35.57-2.59 0-5.07-.89-2.48-.9-4.42-2.71-1.93-1.81-3.12-4.49-1.19-2.67-1.19-6.26 0-3.35 1.24-6.28t3.49-5.14q2.24-2.21 5.38-3.48 3.14-1.28 6.93-1.28 3.83 0 6.89 1.21 3.05 1.21 5.21 3.38 2.15 2.17 3.31 5.21 1.15 3.03 1.15 6.66 0 2.31-.39 4.38-.4 2.07-1.12 3.98-.73 1.92-1.76 3.75-1.04 1.83-2.32 3.62l-11.41 16.28q-.59.83-1.76 1.4-1.18.57-2.66.57h-7.83Zm36.02-49.89h34.46v3.69q0 1.66-.34 2.68-.35 1.02-.69 1.71l-18.91 38.91q-.59 1.21-1.66 2.05-1.07.85-2.86.85h-6.17l19.28-38.12q.66-1.18 1.29-2.16.64-.98 1.44-1.88h-23.88q-.79 0-1.38-.59-.58-.58-.58-1.38v-5.76Z"/></svg>